<?xml version="1.0" standalone="no"?>
<!DOCTYPE svg PUBLIC "-//W3C//DTD SVG 20010904//EN"
 "http://www.w3.org/TR/2001/REC-SVG-20010904/DTD/svg10.dtd">
<svg version="1.0" xmlns="http://www.w3.org/2000/svg"
 width="700.000000pt" height="700.000000pt" viewBox="0 0 700.000000 700.000000"
 preserveAspectRatio="xMidYMid meet">
<metadata>
Created by potrace 1.14, written by Peter Selinger 2001-2017
</metadata>
<g transform="translate(0.000000,700.000000) scale(0.100000,-0.100000)"
fill="#000000" stroke="none">
<path d="M0 3500 l0 -3500 3500 0 3500 0 0 3500 0 3500 -3500 0 -3500 0 0
-3500z m2650 3105 c136 -225 332 -454 515 -602 112 -90 278 -200 425 -280
l126 -68 -129 4 c-89 2 -159 -2 -230 -14 -103 -17 -239 -61 -286 -91 -25 -17
-25 -17 -64 27 -274 313 -403 561 -437 844 -7 56 -9 131 -5 170 6 67 14 115
20 115 1 0 31 -47 65 -105z m-2114 -76 c679 -532 1452 -945 2303 -1230 240
-80 210 -81 495 11 220 71 309 90 418 90 110 0 182 -20 298 -82 200 -106 416
-259 954 -676 521 -404 692 -523 793 -553 39 -11 45 -10 90 16 59 35 156 132
205 206 137 207 217 485 220 762 1 106 1 107 20 90 11 -9 39 -47 63 -83 180
-273 292 -680 335 -1221 17 -209 8 -709 -15 -808 -23 -101 -56 -190 -96 -258
-34 -58 -168 -203 -186 -203 -6 0 -14 16 -18 36 -12 67 -63 208 -110 307 l-47
98 -40 -58 c-49 -71 -86 -111 -161 -174 -64 -54 -77 -59 -77 -28 0 48 -44 191
-87 282 -26 53 -49 97 -52 97 -3 0 -26 -37 -51 -81 -39 -70 -156 -219 -178
-226 -4 -2 -15 32 -25 75 -22 93 -93 241 -145 301 l-38 44 -68 -54 c-37 -30
-108 -78 -159 -107 l-92 -53 -12 41 c-27 94 -81 144 -200 187 -184 66 -478 70
-754 8 -153 -34 -339 -113 -339 -144 0 -22 249 -262 315 -304 204 -129 351
-127 607 11 20 10 58 -214 58 -342 l0 -69 53 6 c69 9 173 45 274 96 l83 41 0
-25 c0 -45 -21 -218 -34 -283 -15 -72 -21 -68 86 -48 96 18 194 58 264 107 31
22 57 39 59 37 11 -13 36 -204 38 -287 l2 -102 50 6 c123 15 221 38 296 70
l82 34 -7 -87 c-16 -218 -107 -432 -229 -538 -50 -43 -138 -89 -198 -104 l-44
-11 -1 -197 c0 -187 -2 -203 -31 -312 -28 -104 -102 -315 -108 -308 -2 2 -17
53 -34 113 -88 309 -225 601 -386 820 -46 63 -62 76 -151 124 -321 175 -694
445 -981 712 -115 107 -309 310 -356 371 l-21 28 -39 -73 c-115 -213 -285
-385 -594 -603 -76 -54 -191 -135 -256 -181 -66 -47 -120 -83 -122 -81 -2 2
12 39 31 83 83 191 190 537 215 697 23 150 -7 448 -45 448 -6 0 -36 -12 -66
-26 -387 -181 -964 -336 -1490 -399 -143 -18 -656 -33 -687 -21 -23 10 -4 19
259 137 731 327 1152 593 1323 834 62 89 62 86 8 69 -462 -144 -1035 -161
-1508 -45 -115 29 -241 69 -220 70 6 1 66 8 135 16 307 36 555 111 833 253
165 84 425 249 411 261 -5 4 -67 29 -139 55 -568 209 -962 465 -1212 789 -24
31 -41 57 -37 57 3 0 70 -20 148 -44 509 -160 953 -261 1281 -291 l70 -6 -70
63 c-482 432 -838 883 -1089 1378 -104 205 -223 501 -194 484 7 -5 63 -47 124
-95z m1930 -3921 c-3 -13 -8 -41 -11 -63 -3 -22 -20 -93 -37 -159 -30 -115
-32 -119 -67 -135 -29 -12 -69 -16 -196 -15 -140 1 -172 4 -259 27 -55 15
-103 30 -107 34 -4 5 13 39 39 77 l47 70 125 32 c118 31 332 102 410 137 50
22 61 21 56 -5z m-936 -243 c0 -3 -23 -47 -51 -97 -88 -157 -161 -325 -226
-513 -151 -444 -169 -886 -54 -1342 17 -67 31 -124 31 -127 0 -3 -110 -6 -245
-6 l-244 0 -10 38 c-37 138 -44 401 -16 582 71 461 300 971 617 1372 57 72 74
87 101 91 52 6 97 7 97 2z m200 -309 c127 -46 264 -70 407 -70 93 -1 133 -4
133 -13 0 -6 -42 -107 -94 -225 l-95 -213 -123 1 c-145 1 -228 13 -360 55
-143 45 -138 37 -93 155 41 108 145 334 153 334 2 0 35 -11 72 -24z m1518
-203 c175 -349 376 -627 652 -904 229 -229 482 -424 779 -601 l115 -68 -570 0
-569 0 -135 112 c-167 139 -396 362 -502 488 -99 117 -202 272 -257 384 -40
82 -111 279 -111 309 0 8 66 63 148 121 81 58 199 148 262 200 63 52 116 95
117 95 1 1 33 -61 71 -136z m-1785 -478 c84 -37 202 -73 297 -92 172 -33 470
-14 653 41 47 14 48 14 57 -9 48 -126 122 -271 192 -373 17 -24 28 -45 26 -46
-8 -8 -234 -58 -329 -73 -143 -22 -412 -22 -539 0 -119 22 -296 69 -391 104
l-72 26 6 136 c4 75 13 174 22 221 8 47 15 86 15 88 0 5 9 2 63 -23z m67 -736
c379 -105 725 -103 1180 7 l145 35 203 -200 202 -201 -884 0 -884 0 -16 48
c-19 57 -71 262 -80 316 -7 35 -6 38 11 32 10 -4 65 -21 123 -37z"/>
<path d="M3953 4816 c-149 -158 -191 -254 -144 -330 78 -125 380 -259 701
-311 124 -19 299 -29 328 -18 20 8 10 17 -105 95 -262 178 -504 400 -628 577
-31 44 -58 81 -60 81 -2 0 -43 -42 -92 -94z"/>
</g>
</svg>
